<?xml version="1.0" encoding="iso-8859-1"?>
<!-- Generator: Adobe Illustrator 19.0.0, SVG Export Plug-In . SVG Version: 6.00 Build 0)  -->
<svg version="1.1" id="Layer_1" xmlns="http://www.w3.org/2000/svg" xmlns:xlink="http://www.w3.org/1999/xlink" x="0px" y="0px"
	 viewBox="0 0 295.996 295.996" style="enable-background:new 0 0 295.996 295.996;" xml:space="preserve">
<g>
	<path style="fill:#FFCE00;" d="M89.665,148.915c13.784,0,24.999-11.178,24.999-24.916v-17.002h-50v16.835
		C64.664,137.663,75.88,148.915,89.665,148.915z M89.497,110.998c8.836,0,16,7.164,16,16s-7.164,16-16,16s-16-7.164-16-16
		S80.661,110.998,89.497,110.998z"/>
	<path style="fill:#FFCE00;" d="M160.76,31.457c-45.55,1.66-85.215,24.908-109.532,59.54h215.814
		c-7.266-15.112-17.33-28.632-29.511-39.896C215.141,37.726,188.766,30.436,160.76,31.457z"/>
	<path style="fill:#FFCE00;" d="M269.958,106.997h-23.294v17.002c0,22.562-18.392,40.916-40.999,40.916
		c-22.608,0-41.001-18.43-41.001-41.083v-16.835h-34v17.002c0,22.562-18.392,40.916-40.999,40.916
		c-22.608,0-41.001-18.43-41.001-41.083v-16.835h-7.147c-8.736,16.839-14.145,35.641-15.381,55.509
		c12.347,16.431,32.01,27.138,54.172,27.138c24.993,0,46.809-13.646,58.532-33.646h18.309c11.725,20,33.541,33.646,58.533,33.646
		c18.526,0,35.309-7.482,47.53-19.534c5.036-14.44,7.782-29.954,7.782-46.111C270.996,118.241,270.634,112.571,269.958,106.997z"/>
	<path style="fill:#FFCE00;" d="M205.665,148.915c13.784,0,24.999-11.178,24.999-24.916v-17.002h-50v16.835
		C180.664,137.663,191.88,148.915,205.665,148.915z M206.497,110.998c8.836,0,16,7.164,16,16s-7.164,16-16,16s-16-7.164-16-16
		S197.661,110.998,206.497,110.998z"/>
	<path style="fill:#FFB100;" d="M269.958,106.997c0.676,5.574,1.038,11.244,1.038,17.001c0,16.157-2.746,31.671-7.782,46.111
		c7.508-7.402,13.286-16.53,16.693-26.713c-0.437-12.663-2.664-24.878-6.439-36.399
		C273.468,106.997,269.958,106.997,269.958,106.997z"/>
	<path style="fill:#FFE454;" d="M28.954,90.997h20.043h2.23c24.317-34.632,63.982-57.88,109.532-59.54
		c28.006-1.021,54.381,6.268,76.771,19.644C213.985,29.328,182.521,16,147.998,16C95.616,16,50.265,46.671,28.954,90.997z"/>
	<path style="fill:#FFE454;" d="M22.527,106.997c-3.775,11.525-6.004,23.743-6.438,36.41c2.318,6.926,5.735,13.359,10.048,19.099
		c1.235-19.868,6.645-38.67,15.381-55.509C41.518,106.997,22.527,106.997,22.527,106.997z"/>
	<path d="M147.998,0C66.392,0,0,66.392,0,147.998s66.392,147.998,147.998,147.998s147.998-66.392,147.998-147.998
		S229.604,0,147.998,0z M147.998,246.997c-20.805,0-37.668-15-37.668-33c12.915,0,75.334,0,75.334,0
		C185.664,231.997,168.8,246.997,147.998,246.997z M263.214,170.109c-12.222,12.052-29.004,19.534-47.53,19.534
		c-24.992,0-46.809-13.646-58.533-33.646h-18.309c-11.724,20-33.539,33.646-58.532,33.646c-22.162,0-41.825-10.707-54.172-27.138
		c-4.313-5.739-7.729-12.173-10.048-19.099c0.435-12.667,2.663-24.885,6.438-36.41h18.99h7.147v16.835
		c0,22.653,18.393,41.083,41.001,41.083c22.607,0,40.999-18.354,40.999-40.916v-17.002h34v16.835
		c0,22.653,18.393,41.083,41.001,41.083c22.607,0,40.999-18.354,40.999-40.916v-17.002h23.294h3.511
		c3.774,11.521,6.002,23.736,6.439,36.399C276.5,153.579,270.722,162.707,263.214,170.109z M267.042,90.997H28.954
		C50.265,46.671,95.616,16,147.998,16c34.523,0,65.987,13.328,89.533,35.102C249.712,62.365,259.776,75.885,267.042,90.997z
		 M180.664,106.997h50v17.002c0,13.738-11.215,24.916-24.999,24.916c-13.785,0-25.001-11.252-25.001-25.083V106.997z
		 M64.664,106.997h50v17.002c0,13.738-11.215,24.916-24.999,24.916c-13.785,0-25.001-11.252-25.001-25.083V106.997z"/>
	<path style="fill:#FFFFFF;" d="M147.998,246.997c20.802,0,37.666-15,37.666-33c0,0-62.419,0-75.334,0
		C110.33,231.997,127.193,246.997,147.998,246.997z"/>
	<circle cx="89.497" cy="126.998" r="16"/>
	<circle cx="206.497" cy="126.998" r="16"/>
</g>
<g>
</g>
<g>
</g>
<g>
</g>
<g>
</g>
<g>
</g>
<g>
</g>
<g>
</g>
<g>
</g>
<g>
</g>
<g>
</g>
<g>
</g>
<g>
</g>
<g>
</g>
<g>
</g>
<g>
</g>
</svg>
