<?xml version="1.0" encoding="iso-8859-1"?>
<!-- Generator: Adobe Illustrator 19.0.0, SVG Export Plug-In . SVG Version: 6.00 Build 0)  -->
<svg version="1.1" id="Layer_1" xmlns="http://www.w3.org/2000/svg" xmlns:xlink="http://www.w3.org/1999/xlink" x="0px" y="0px"
	 viewBox="0 0 295.996 295.996" style="enable-background:new 0 0 295.996 295.996;" xml:space="preserve">
<g>
	<path style="fill:#FFCE00;" d="M267.089,91.099c-7.269-15.153-17.35-28.709-29.558-39.997
		c-22.391-13.376-48.766-20.666-76.772-19.645C89.987,34.036,33.249,88.724,26.4,157.273c16.906,11.539,35.264,20.73,55.264,27.12
		v-15.395h132v15.395c19-6.026,36.568-14.553,52.699-25.186c2.914-11.249,4.55-23.047,4.55-35.208
		C270.913,112.664,269.633,101.65,267.089,91.099z M98.497,130.998c-8.836,0-16-7.164-16-16s7.164-16,16-16s16,7.164,16,16
		S107.333,130.998,98.497,130.998z M197.497,130.998c-8.836,0-16-7.164-16-16s7.164-16,16-16s16,7.164,16,16
		S206.333,130.998,197.497,130.998z"/>
	<path style="fill:#FFB100;" d="M267.089,91.099c2.544,10.552,3.907,21.565,3.907,32.899c0,12.161-1.553,23.959-4.467,35.208
		c4.608-3.037,9.094-6.246,13.446-9.619c0.007-0.529,0.021-1.058,0.021-1.589C279.996,127.636,275.358,108.337,267.089,91.099z"/>
	<path style="fill:#FFE454;" d="M160.76,31.457c28.006-1.021,54.381,6.268,76.772,19.645C213.985,29.328,182.521,16,147.998,16
		C75.214,16,16,75.214,16,147.998c0,0.531,0.014,1.06,0.021,1.59c3.436,2.662,6.949,5.23,10.546,7.685
		C33.415,88.724,89.987,34.036,160.76,31.457z"/>
	<path d="M147.998,0C66.392,0,0,66.392,0,147.998s66.392,147.998,147.998,147.998s147.998-66.392,147.998-147.998
		S229.605,0,147.998,0z M147.978,235.08c-18.825,0-34.063-15.285-34.063-34.083c11.685,0,68.083,0,68.083,0h0.042
		C182.039,219.795,166.801,235.08,147.978,235.08z M266.363,159.206c-16.131,10.634-33.699,19.16-52.699,25.186v-15.395h-132v15.395
		c-20-6.39-38.358-15.581-55.264-27.12c-3.597-2.455-7.027-5.022-10.463-7.685c-0.007-0.53,0.021-1.059,0.021-1.59
		C15.958,75.214,75.193,16,147.977,16c34.523,0,65.998,13.328,89.544,35.102c12.208,11.288,22.294,24.844,29.563,39.997
		c8.27,17.238,12.91,36.537,12.91,56.899c0,0.531-0.096,1.06-0.102,1.589C275.539,152.96,270.971,156.169,266.363,159.206z"/>
	<circle cx="98.497" cy="114.998" r="16"/>
	<circle cx="197.497" cy="114.998" r="16"/>
	<path style="fill:#FFFFFF;" d="M113.914,200.997c0,18.798,15.238,34.083,34.063,34.083c18.823,0,34.062-15.285,34.062-34.083
		h-0.042C181.997,200.997,125.6,200.997,113.914,200.997z"/>
</g>
<g>
</g>
<g>
</g>
<g>
</g>
<g>
</g>
<g>
</g>
<g>
</g>
<g>
</g>
<g>
</g>
<g>
</g>
<g>
</g>
<g>
</g>
<g>
</g>
<g>
</g>
<g>
</g>
<g>
</g>
</svg>
