<?xml version="1.0" encoding="iso-8859-1"?>
<!-- Generator: Adobe Illustrator 19.0.0, SVG Export Plug-In . SVG Version: 6.00 Build 0)  -->
<svg version="1.1" id="Layer_1" xmlns="http://www.w3.org/2000/svg" xmlns:xlink="http://www.w3.org/1999/xlink" x="0px" y="0px"
	 viewBox="0 0 295.996 295.996" style="enable-background:new 0 0 295.996 295.996;" xml:space="preserve">
<g>
	<path style="fill:#FFCE00;" d="M270.996,123.998c0-11.334-1.363-22.348-3.907-32.9c-7.269-15.152-17.35-28.708-29.558-39.996
		c-22.391-13.376-48.766-20.666-76.771-19.645C83.492,34.273,23.139,99.196,25.955,176.463c0.412,11.304,2.17,22.239,5.087,32.673
		c6.303,12.01,14.397,22.938,23.934,32.42c21.892,14.189,47.99,22.44,76.022,22.44C208.316,263.996,270.996,201.316,270.996,123.998
		z M184.571,72.092l50.672,21.944l-6.359,14.682l-50.672-21.944L184.571,72.092z M182.987,129.997c0,9,6.997,15.597,15.597,15.597
		s15.597-6.597,15.597-15.597h16c0,17-14.174,31.597-31.597,31.597s-31.597-14.597-31.597-31.597H182.987z M110.757,72.092
		l6.359,14.682l-50.672,21.944l-6.359-14.682L110.757,72.092z M65.813,129.997h16c0,9,6.997,15.597,15.597,15.597
		s15.597-6.597,15.597-15.597h16c0,17-14.174,31.597-31.597,31.597S65.813,146.997,65.813,129.997z M97.664,198.997h100v16h-100
		V198.997z"/>
	<path style="fill:#FFB100;" d="M267.089,91.098c2.544,10.553,3.907,21.566,3.907,32.9c0,77.318-62.68,139.998-139.998,139.998
		c-28.032,0-54.131-8.251-76.022-22.44c23.88,23.744,56.767,38.44,93.022,38.44c72.784,0,131.998-59.214,131.998-131.998
		C279.996,127.636,275.358,108.337,267.089,91.098z"/>
	<path style="fill:#FFE454;" d="M160.76,31.457c28.006-1.021,54.381,6.269,76.771,19.645C213.985,29.328,182.521,16,147.998,16
		C75.214,16,16,75.214,16,147.998c0,22.049,5.442,42.849,15.042,61.138c-2.917-10.434-4.675-21.369-5.087-32.673
		C23.139,99.196,83.492,34.273,160.76,31.457z"/>
	<path d="M147.998,0C66.392,0,0,66.392,0,147.998s66.392,147.998,147.998,147.998s147.998-66.392,147.998-147.998
		S229.605,0,147.998,0z M147.998,279.996c-36.256,0-69.143-14.696-93.022-38.44c-9.536-9.482-17.631-20.41-23.934-32.42
		C21.442,190.847,16,170.047,16,147.998C16,75.214,75.214,16,147.998,16c34.523,0,65.987,13.328,89.533,35.102
		c12.208,11.288,22.289,24.844,29.558,39.996c8.27,17.239,12.907,36.538,12.907,56.9
		C279.996,220.782,220.782,279.996,147.998,279.996z"/>
	<path d="M198.584,161.594c17.423,0,31.597-14.597,31.597-31.597h-16c0,9-6.997,15.597-15.597,15.597s-15.597-6.597-15.597-15.597
		h-16C166.987,146.997,181.161,161.594,198.584,161.594z"/>
	<path d="M129.007,129.997h-16c0,9-6.997,15.597-15.597,15.597s-15.597-6.597-15.597-15.597h-16c0,17,14.174,31.597,31.597,31.597
		S129.007,146.997,129.007,129.997z"/>
	<rect x="97.664" y="198.997" width="100" height="16"/>
	
		<rect x="179.11" y="82.401" transform="matrix(-0.9176 -0.3974 0.3974 -0.9176 360.4855 255.5091)" width="55.218" height="15.999"/>
	<rect x="80.606" y="62.797" transform="matrix(-0.3975 -0.9176 0.9176 -0.3975 40.869 207.6488)" width="16" height="55.22"/>
</g>
<g>
</g>
<g>
</g>
<g>
</g>
<g>
</g>
<g>
</g>
<g>
</g>
<g>
</g>
<g>
</g>
<g>
</g>
<g>
</g>
<g>
</g>
<g>
</g>
<g>
</g>
<g>
</g>
<g>
</g>
</svg>
