<?xml version="1.0" encoding="iso-8859-1"?>
<!-- Generator: Adobe Illustrator 19.0.0, SVG Export Plug-In . SVG Version: 6.00 Build 0)  -->
<svg version="1.1" id="Layer_1" xmlns="http://www.w3.org/2000/svg" xmlns:xlink="http://www.w3.org/1999/xlink" x="0px" y="0px"
	 viewBox="0 0 295.996 295.996" style="enable-background:new 0 0 295.996 295.996;" xml:space="preserve">
<g>
	<path style="fill:#FFCE00;" d="M270.996,123.998c0-11.334-1.363-22.348-3.907-32.9c-7.269-15.152-17.35-28.708-29.558-39.996
		c-22.391-13.376-48.766-20.666-76.772-19.645C83.492,34.274,23.139,99.196,25.955,176.463c0.413,11.304,2.17,22.239,5.087,32.673
		c6.303,12.01,14.397,22.938,23.934,32.42c21.892,14.189,47.99,22.44,76.023,22.44C208.316,263.996,270.996,201.316,270.996,123.998
		z M198.584,98.4c17.423,0,31.597,13.597,31.597,31.597h-16c0-9-6.997-15.597-15.597-15.597s-15.597,6.597-15.597,15.597h-16
		C166.987,111.997,181.161,98.4,198.584,98.4z M97.41,98.4c17.423,0,31.597,13.597,31.597,31.597h-16
		c0-9-6.997-15.597-15.597-15.597s-15.597,6.597-15.597,15.597h-16C65.813,111.997,79.987,98.4,97.41,98.4z M70.677,187.882
		l13.438-8.684c12.224,18.915,32.811,31.74,55.072,34.308c28.56,3.297,57.098-10.173,72.693-34.308l13.439,8.684
		c-16.984,26.283-46.649,42.113-77.604,42.113c-3.445,0-6.9-0.195-10.362-0.595C110.393,226.291,85.467,210.771,70.677,187.882z"/>
	<path style="fill:#FFB100;" d="M267.089,91.098c2.544,10.553,3.907,21.566,3.907,32.9c0,77.318-62.68,139.998-139.998,139.998
		c-28.032,0-54.131-8.251-76.023-22.44c23.88,23.744,56.766,38.44,93.023,38.44c72.784,0,131.998-59.214,131.998-131.998
		C279.996,127.636,275.358,108.337,267.089,91.098z"/>
	<path style="fill:#FFE454;" d="M160.76,31.457c28.006-1.021,54.381,6.268,76.772,19.645C213.985,29.328,182.521,16,147.998,16
		C75.214,16,16,75.214,16,147.998c0,22.049,5.442,42.849,15.042,61.138c-2.917-10.434-4.674-21.369-5.087-32.673
		C23.139,99.196,83.492,34.274,160.76,31.457z"/>
	<path d="M147.998,0C66.392,0,0,66.392,0,147.998s66.392,147.998,147.998,147.998s147.998-66.392,147.998-147.998
		S229.605,0,147.998,0z M147.998,279.996c-36.257,0-69.143-14.696-93.023-38.44c-9.536-9.482-17.631-20.41-23.934-32.42
		C21.442,190.847,16,170.047,16,147.998C16,75.214,75.214,16,147.998,16c34.523,0,65.987,13.328,89.533,35.102
		c12.208,11.288,22.289,24.844,29.558,39.996c8.27,17.239,12.907,36.538,12.907,56.9
		C279.996,220.782,220.782,279.996,147.998,279.996z"/>
	<path d="M97.41,114.4c8.6,0,15.597,6.597,15.597,15.597h16c0-18-14.174-31.597-31.597-31.597s-31.597,13.597-31.597,31.597h16
		C81.813,120.997,88.811,114.4,97.41,114.4z"/>
	<path d="M198.584,114.4c8.6,0,15.597,6.597,15.597,15.597h16c0-18-14.174-31.597-31.597-31.597s-31.597,13.597-31.597,31.597h16
		C182.987,120.997,189.984,114.4,198.584,114.4z"/>
	<path d="M147.715,229.995c30.954,0,60.619-15.83,77.604-42.113l-13.439-8.684c-15.596,24.135-44.134,37.605-72.693,34.308
		c-22.262-2.567-42.849-15.393-55.072-34.308l-13.438,8.684c14.79,22.889,39.716,38.409,66.676,41.518
		C140.814,229.8,144.27,229.995,147.715,229.995z"/>
</g>
<g>
</g>
<g>
</g>
<g>
</g>
<g>
</g>
<g>
</g>
<g>
</g>
<g>
</g>
<g>
</g>
<g>
</g>
<g>
</g>
<g>
</g>
<g>
</g>
<g>
</g>
<g>
</g>
<g>
</g>
</svg>
