<?xml version="1.0" encoding="iso-8859-1"?>
<!-- Generator: Adobe Illustrator 19.0.0, SVG Export Plug-In . SVG Version: 6.00 Build 0)  -->
<svg version="1.1" id="Layer_1" xmlns="http://www.w3.org/2000/svg" xmlns:xlink="http://www.w3.org/1999/xlink" x="0px" y="0px"
	 viewBox="0 0 296.019 296.019" style="enable-background:new 0 0 296.019 296.019;" xml:space="preserve">
<g>
	<path style="fill:#FFCE00;" d="M160.783,31.469C98.043,33.756,46.29,76.99,30.616,134.532c11.453-3.013,25.071-3.975,37.071-4.086
		v-0.041c0-17.409,14.355-31.742,31.717-31.742c17.397,0,31.717,14.347,31.717,31.347h-16c0-8-6.976-15.347-15.551-15.347
		s-15.551,7.118-15.551,15.753l-0.002,0.395l-0.172,7.199h-0.023l0.013,0.5c0.008,0.398,0.145,8.234-0.643,18.5h128.979
		c-0.776-10.223-0.641-18.041-0.633-18.438l0.014-0.563h-0.024l-0.174-7.348c0-8.635-6.976-15.923-15.551-15.923
		s-15.551,7.271-15.551,15.27h-16c0-17,14.153-31.347,31.551-31.347c17.362,0,31.494,14.239,31.551,31.648l0.003,0.143
		c14.152,0.131,30.754,1.439,43.115,5.896c0.354-4.066,0.547-8.18,0.547-12.339c0-11.334-1.363-22.348-3.907-32.899
		c-7.269-15.153-17.35-28.709-29.558-39.997C215.164,37.738,188.789,30.448,160.783,31.469z"/>
	<path style="fill:#FFCE00;" d="M240.425,211.354c-5.419-2.081-10.391-5.323-14.601-9.532c-1.803-1.803-3.424-4.047-4.879-6.713
		c-13.746,26.256-41.234,44.184-72.925,44.184c-31.993,0-59.7-18.271-73.311-44.936c-1.526,2.885-3.24,5.295-5.16,7.216
		c-7.699,7.698-17.935,11.938-28.823,11.938c-2.606,0-5.174-0.25-7.68-0.726c5.986,10.585,13.388,20.267,21.952,28.783
		c21.892,14.189,47.99,22.44,76.022,22.44C175.3,264.008,214.772,243.445,240.425,211.354z"/>
	<path style="fill:#FFB100;" d="M254.65,214.009h-0.003c-4.934,0-9.73-0.931-14.222-2.655
		c-25.653,32.091-65.125,52.654-109.404,52.654c-28.032,0-54.131-8.251-76.022-22.44c23.88,23.744,56.767,38.44,93.022,38.44
		c49.107,0,92.032-26.958,114.766-66.85C260.137,213.716,257.414,214.009,254.65,214.009z"/>
	<path style="fill:#FFB100;" d="M270.472,136.349c3.513,1.267,6.685,2.786,9.357,4.607c-0.939-17.766-5.409-34.611-12.718-49.846
		c2.544,10.552,3.907,21.565,3.907,32.899C271.019,128.169,270.827,132.282,270.472,136.349z"/>
	<path style="fill:#FFE454;" d="M16.242,140.499c3.989-2.563,8.989-4.508,14.541-5.968c15.674-57.541,67.261-100.775,130-103.063
		c28.006-1.021,54.381,6.269,76.771,19.645c-23.546-21.773-55.01-35.102-89.533-35.102C77.757,16.012,20.148,71.197,16.242,140.499z
		"/>
	<path style="fill:#FFFFFF;" d="M147.939,223.292c31.033,0,57.07-21.438,64.246-50.283h-0.165H83.69
		C90.866,201.855,116.904,223.292,147.939,223.292z"/>
	<path style="fill:#28E0FF;" d="M40.726,197.51c6.614,0,12.833-2.575,17.509-7.252c6.15-6.15,9.059-27.16,9.552-43.811
		c-22.081,0.256-39.421,3.651-44.565,8.797c-9.654,9.654-9.654,25.362,0,35.016C27.896,194.936,34.113,197.51,40.726,197.51z"/>
	<path style="fill:#28E0FF;" d="M227.591,146.449c0.502,16.657,3.412,37.924,9.548,44.059c4.676,4.678,10.894,7.502,17.509,7.502
		h0.002c6.612,0,12.828-2.824,17.503-7.5c9.654-9.652,9.654-25.485,0-35.141C267.008,150.224,249.671,146.704,227.591,146.449z"/>
	<path d="M294.873,166.434c0.753-6.038,1.146-12.186,1.146-18.424c0-81.606-66.392-147.998-147.998-147.998
		C66.414,0.012,0.023,66.404,0.023,148.01c0,5.458,0.307,10.845,0.885,16.151c-2.48,11.588,0.117,24.047,7.796,33.792
		c20.534,57.105,75.23,98.055,139.317,98.055c64.536,0,119.548-41.526,139.742-99.259
		C294.144,187.839,296.513,176.874,294.873,166.434z M148.021,280.008c-36.256,0-69.143-14.696-93.022-38.44
		c-8.564-8.517-15.966-18.198-21.952-28.783c2.506,0.476,5.073,0.726,7.68,0.726c10.889,0,21.124-4.239,28.823-11.938
		c1.92-1.921,3.634-4.331,5.16-7.216c13.611,26.664,41.318,44.936,73.311,44.936c31.69,0,59.179-17.928,72.925-44.184
		c1.455,2.666,3.076,4.91,4.879,6.713c4.21,4.209,9.182,7.451,14.601,9.532c4.491,1.725,9.288,2.655,14.222,2.655h0.003
		c2.765,0,5.487-0.293,8.137-0.851C240.053,253.05,197.128,280.008,148.021,280.008z M272.153,190.509
		c-4.675,4.676-10.891,7.5-17.503,7.5h-0.002c-6.615,0-12.833-2.824-17.509-7.502c-6.136-6.135-9.046-27.401-9.548-44.059
		c22.079,0.256,39.417,3.775,44.561,8.92C281.807,165.024,281.807,180.857,272.153,190.509z M267.112,91.111
		c7.309,15.234,11.778,32.08,12.718,49.846c-2.673-1.821-5.845-3.341-9.357-4.607c-12.361-4.457-28.963-5.765-43.115-5.896
		l-0.003-0.143c-0.057-17.409-14.189-31.648-31.551-31.648c-17.398,0-31.551,14.347-31.551,31.347h16
		c0-8,6.976-15.347,15.551-15.347s15.551,7.364,15.551,15.999l0.174,7.348h0.024l-0.014,0.563
		c-0.008,0.396-0.144,8.215,0.633,18.438H83.193c0.787-10.266,0.65-18.102,0.643-18.5l-0.013-0.5h0.023l0.172-7.199l0.002-0.318
		c0-8.635,6.976-15.791,15.551-15.791s15.551,7.309,15.551,15.309h16c0-17-14.32-31.347-31.717-31.347
		c-17.362,0-31.717,14.333-31.717,31.742v0.041c-12,0.111-25.618,1.073-37.07,4.086c-5.552,1.46-10.469,3.405-14.458,5.968
		c3.905-69.305,61.556-124.49,131.819-124.49c34.523,0,66.008,13.328,89.554,35.102C249.742,62.402,259.843,75.957,267.112,91.111z
		 M212.186,173.009c-7.176,28.846-33.213,50.283-64.246,50.283c-31.035,0-57.073-21.438-64.249-50.283h128.33H212.186z
		 M23.221,155.244c5.144-5.146,22.484-8.541,44.565-8.797c-0.493,16.65-3.401,37.66-9.552,43.811
		c-4.676,4.677-10.895,7.252-17.509,7.252c-6.613,0-12.83-2.574-17.505-7.25C13.567,180.607,13.567,164.899,23.221,155.244z"/>
</g>
<g>
</g>
<g>
</g>
<g>
</g>
<g>
</g>
<g>
</g>
<g>
</g>
<g>
</g>
<g>
</g>
<g>
</g>
<g>
</g>
<g>
</g>
<g>
</g>
<g>
</g>
<g>
</g>
<g>
</g>
</svg>
