<?xml version="1.0" encoding="iso-8859-1"?>
<!-- Generator: Adobe Illustrator 19.0.0, SVG Export Plug-In . SVG Version: 6.00 Build 0)  -->
<svg version="1.1" id="Layer_1" xmlns="http://www.w3.org/2000/svg" xmlns:xlink="http://www.w3.org/1999/xlink" x="0px" y="0px"
	 viewBox="0 0 295.996 295.996" style="enable-background:new 0 0 295.996 295.996;" xml:space="preserve">
<g>
	<path style="fill:#FFCE00;" d="M104.607,234.904c-23.344-14.52-38.893-40.393-38.893-69.907h164.564
		c0,29.515-15.549,55.387-38.893,69.907c-1.156,6.99-3.929,13.432-7.923,18.919c51.321-20.762,87.532-71.061,87.532-129.825
		c0-11.334-1.363-22.348-3.907-32.899c-7.269-15.153-17.35-28.709-29.558-39.997c-22.391-13.376-48.766-20.666-76.771-19.645
		C83.492,34.273,23.139,99.196,25.955,176.463c0.413,11.304,2.17,22.239,5.087,32.673c6.303,12.01,14.397,22.938,23.934,32.42
		c19.659,12.742,42.712,20.689,67.512,22.178C113.183,257.022,106.566,246.753,104.607,234.904z M188.894,89.445l11.313,11.315
		l-17.94,17.938l17.941,17.94l-11.315,11.314l-29.254-29.255L188.894,89.445z M95.788,100.76L107.1,89.445l29.255,29.253
		l-29.254,29.255l-11.314-11.314l17.941-17.94L95.788,100.76z"/>
	<path style="fill:#FFB100;" d="M267.089,91.099c2.544,10.552,3.907,21.565,3.907,32.899c0,58.765-36.211,109.063-87.532,129.825
		c-8.016,11.01-20.926,18.174-35.467,18.174c-9.505,0-18.308-3.069-25.51-8.264c-24.8-1.488-47.852-9.436-67.512-22.178
		c23.88,23.744,56.766,38.44,93.022,38.44c72.784,0,131.998-59.214,131.998-131.998C279.996,127.636,275.358,108.337,267.089,91.099
		z"/>
	<path style="fill:#FFE454;" d="M160.76,31.457c28.006-1.021,54.381,6.269,76.771,19.645C213.985,29.328,182.521,16,147.998,16
		C75.214,16,16,75.214,16,147.998c0,22.05,5.442,42.849,15.042,61.138c-2.917-10.434-4.674-21.369-5.087-32.673
		C23.139,99.196,83.492,34.273,160.76,31.457z"/>
	<path d="M147.998,0C66.392,0,0,66.392,0,147.998s66.392,147.998,147.998,147.998s147.998-66.392,147.998-147.998
		S229.604,0,147.998,0z M147.998,279.996c-36.257,0-69.143-14.696-93.022-38.44c-9.536-9.482-17.631-20.41-23.934-32.42
		C21.442,190.847,16,170.048,16,147.998C16,75.214,75.214,16,147.998,16c34.523,0,65.987,13.328,89.533,35.102
		c12.208,11.288,22.289,24.844,29.558,39.997c8.27,17.238,12.907,36.537,12.907,56.899
		C279.996,220.782,220.782,279.996,147.998,279.996z"/>
	<polygon points="107.102,147.953 136.355,118.698 107.101,89.445 95.788,100.76 113.729,118.698 95.787,136.639 	"/>
	<polygon points="200.207,136.639 182.266,118.698 200.206,100.76 188.894,89.445 159.639,118.698 188.893,147.953 	"/>
	<path style="fill:#FFFFFF;" d="M103.664,214.544v-16.547h88v16.399c10-8.731,17.238-20.296,20.498-33.399h-0.165H83.667
		C86.945,194.175,94.664,205.796,103.664,214.544z"/>
	<path d="M230.279,164.997H65.715c0,29.515,15.549,55.387,38.893,69.907c1.959,11.849,8.575,22.118,17.88,28.829
		c7.202,5.194,16.005,8.264,25.51,8.264c14.541,0,27.451-7.164,35.467-18.174c3.994-5.487,6.767-11.929,7.923-18.919
		C214.73,220.384,230.279,194.512,230.279,164.997z M147.664,255.997c-15.701,0-28-12.487-28-28.429v-13.571h56v13.571
		C175.664,243.51,163.365,255.997,147.664,255.997z M211.997,180.997h0.165c-3.26,13.104-10.498,24.668-20.498,33.399v-16.399h-88
		v16.547c-9-8.748-16.719-20.369-19.997-33.547H211.997z"/>
	<path style="fill:#E36600;" d="M175.664,227.568v-13.571h-56v13.571c0,15.941,12.299,28.429,28,28.429
		S175.664,243.51,175.664,227.568z"/>
</g>
<g>
</g>
<g>
</g>
<g>
</g>
<g>
</g>
<g>
</g>
<g>
</g>
<g>
</g>
<g>
</g>
<g>
</g>
<g>
</g>
<g>
</g>
<g>
</g>
<g>
</g>
<g>
</g>
<g>
</g>
</svg>
