<?xml version="1.0" encoding="iso-8859-1"?>
<!-- Generator: Adobe Illustrator 19.0.0, SVG Export Plug-In . SVG Version: 6.00 Build 0)  -->
<svg version="1.1" id="Layer_1" xmlns="http://www.w3.org/2000/svg" xmlns:xlink="http://www.w3.org/1999/xlink" x="0px" y="0px"
	 viewBox="0 0 295.996 295.996" style="enable-background:new 0 0 295.996 295.996;" xml:space="preserve">
<g>
	<path style="fill:#FFCE00;" d="M270.996,123.998c0-11.334-1.363-22.348-3.907-32.899c-7.269-15.153-17.35-28.709-29.558-39.997
		c-22.391-13.376-48.766-20.666-76.772-19.645C83.492,34.274,23.139,99.196,25.955,176.463c0.413,11.304,2.17,22.239,5.087,32.673
		c6.303,12.01,14.397,22.938,23.934,32.42c21.892,14.189,47.99,22.44,76.023,22.44C208.316,263.996,270.996,201.316,270.996,123.998
		z M78.498,176.997c-15.926,0-28.834-12.909-28.834-28.834c0-15.924,12.908-28.833,28.834-28.833c1.74,0,3.441,0.163,5.097,0.458
		c-0.699-1.797-1.098-3.745-1.098-5.79c0-8.836,7.164-16,16-16s16,7.164,16,16c0,8.071-5.983,14.728-13.751,15.823
		c4.113,4.984,6.584,11.375,6.584,18.342c0,7.373-2.772,14.097-7.323,19.195c12.983,12.067,30.164,18.909,47.989,18.909
		c17.826,0,35.007-6.842,47.991-18.909c-4.553-5.099-7.323-11.822-7.323-19.195c0-6.967,2.471-13.357,6.585-18.342
		c-7.769-1.096-13.752-7.752-13.752-15.823c0-8.836,7.164-16,16-16s16,7.164,16,16c0,2.045-0.398,3.993-1.098,5.79
		c1.656-0.295,3.358-0.458,5.099-0.458c15.924,0,28.832,12.909,28.832,28.833c0,15.925-12.908,28.834-28.832,28.834
		c-2.581,0-5.081-0.344-7.461-0.98c-16.237,16.713-38.697,26.251-62.041,26.251s-45.802-9.538-62.039-26.25
		C83.577,176.653,81.078,176.997,78.498,176.997z"/>
	<path style="fill:#FFB100;" d="M267.089,91.099c2.544,10.552,3.907,21.565,3.907,32.899c0,77.318-62.68,139.998-139.998,139.998
		c-28.032,0-54.131-8.251-76.023-22.44c23.88,23.744,56.766,38.44,93.023,38.44c72.784,0,131.998-59.214,131.998-131.998
		C279.996,127.636,275.358,108.337,267.089,91.099z"/>
	<path style="fill:#FFE454;" d="M160.76,31.457c28.006-1.021,54.381,6.268,76.772,19.645C213.985,29.328,182.521,16,147.998,16
		C75.214,16,16,75.214,16,147.998c0,22.05,5.442,42.849,15.042,61.138c-2.917-10.434-4.674-21.369-5.087-32.673
		C23.139,99.196,83.492,34.274,160.76,31.457z"/>
	<path d="M147.998,0C66.392,0,0,66.392,0,147.998s66.392,147.998,147.998,147.998s147.998-66.392,147.998-147.998
		S229.605,0,147.998,0z M147.998,279.996c-36.257,0-69.143-14.696-93.023-38.44c-9.536-9.482-17.631-20.41-23.934-32.42
		C21.442,190.847,16,170.048,16,147.998C16,75.214,75.214,16,147.998,16c34.523,0,65.987,13.328,89.533,35.102
		c12.208,11.288,22.289,24.844,29.558,39.997c8.27,17.238,12.907,36.537,12.907,56.899
		C279.996,220.782,220.782,279.996,147.998,279.996z"/>
	<path d="M210.037,176.017c-5.507-1.471-10.363-4.529-14.05-8.658c-12.984,12.067-30.165,18.909-47.991,18.909
		c-17.825,0-35.006-6.842-47.989-18.909c-3.687,4.129-8.543,7.188-14.05,8.659c16.237,16.712,38.695,26.25,62.039,26.25
		C171.34,202.268,193.8,192.73,210.037,176.017z"/>
	<path style="fill:#FF9E00;" d="M100.007,167.358c4.552-5.099,7.323-11.822,7.323-19.195c0-6.967-2.471-13.357-6.584-18.342
		c-0.737,0.105-1.483,0.177-2.249,0.177c-6.791,0-12.58-4.239-14.902-10.21c-1.655-0.295-3.356-0.458-5.097-0.458
		c-15.926,0-28.834,12.909-28.834,28.833c0,15.925,12.908,28.834,28.834,28.834c2.58,0,5.079-0.344,7.459-0.98
		C91.464,174.546,96.32,171.487,100.007,167.358z"/>
	<path style="fill:#FF9E00;" d="M210.037,176.017c2.38,0.637,4.88,0.98,7.461,0.98c15.924,0,28.832-12.909,28.832-28.834
		c0-15.924-12.908-28.833-28.832-28.833c-1.741,0-3.442,0.163-5.099,0.458c-2.322,5.971-8.111,10.21-14.902,10.21
		c-0.766,0-1.512-0.072-2.248-0.177c-4.114,4.984-6.585,11.375-6.585,18.342c0,7.373,2.77,14.097,7.323,19.195
		C199.674,171.487,204.53,174.546,210.037,176.017z"/>
	<path d="M98.497,129.998c0.766,0,1.512-0.072,2.249-0.177c7.768-1.096,13.751-7.752,13.751-15.823c0-8.836-7.164-16-16-16
		s-16,7.164-16,16c0,2.045,0.398,3.993,1.098,5.79C85.917,125.759,91.706,129.998,98.497,129.998z"/>
	<path d="M212.399,119.788c0.699-1.797,1.098-3.745,1.098-5.79c0-8.836-7.164-16-16-16s-16,7.164-16,16
		c0,8.071,5.983,14.728,13.752,15.823c0.736,0.105,1.482,0.177,2.248,0.177C204.288,129.998,210.077,125.759,212.399,119.788z"/>
</g>
<g>
</g>
<g>
</g>
<g>
</g>
<g>
</g>
<g>
</g>
<g>
</g>
<g>
</g>
<g>
</g>
<g>
</g>
<g>
</g>
<g>
</g>
<g>
</g>
<g>
</g>
<g>
</g>
<g>
</g>
</svg>
