<?xml version="1.0" encoding="iso-8859-1"?>
<!-- Generator: Adobe Illustrator 19.0.0, SVG Export Plug-In . SVG Version: 6.00 Build 0)  -->
<svg version="1.1" id="Layer_1" xmlns="http://www.w3.org/2000/svg" xmlns:xlink="http://www.w3.org/1999/xlink" x="0px" y="0px"
	 viewBox="0 0 295.996 295.996" style="enable-background:new 0 0 295.996 295.996;" xml:space="preserve">
<g>
	<path style="fill:#FFCE00;" d="M27.024,153.278c9.783,16.584,27.822,27.718,48.472,27.718c31.066,0,56.25-25.184,56.25-56.25
		s-25.184-56.25-56.25-56.25c-1.631,0-3.241,0.085-4.836,0.221C47.21,90.485,31.3,120.149,27.024,153.278z M82.497,107.998
		c8.836,0,16,7.164,16,16s-7.164,16-16,16s-16-7.164-16-16S73.661,107.998,82.497,107.998z"/>
	<path style="fill:#FFCE00;" d="M267.836,94.382c-10.005-15.565-27.461-25.886-47.34-25.886c-31.066,0-56.25,25.184-56.25,56.25
		s25.184,56.25,56.25,56.25c19.556,0,36.773-9.983,46.853-25.126c2.384-10.239,3.647-20.908,3.647-31.872
		C270.996,113.834,269.895,103.93,267.836,94.382z M214.497,139.998c-8.836,0-16-7.164-16-16s7.164-16,16-16s16,7.164,16,16
		S223.333,139.998,214.497,139.998z"/>
	<path style="fill:#FFB100;" d="M270.996,123.998c0,10.964-1.264,21.633-3.647,31.872c5.934-8.914,9.397-19.613,9.397-31.124
		c0-2.976-0.235-5.897-0.681-8.748c-1.406-5.627-3.168-11.115-5.272-16.433c-0.896-1.785-1.884-3.514-2.957-5.184
		C269.895,103.93,270.996,113.834,270.996,123.998z"/>
	<path style="fill:#FFE454;" d="M27.024,153.278C31.3,120.149,47.21,90.485,70.66,68.717c-19.926,1.698-36.88,13.776-45.441,30.811
		c-2.118,5.348-3.891,10.868-5.303,16.53c-0.439,2.832-0.67,5.733-0.67,8.689C19.246,135.163,22.089,144.912,27.024,153.278z"/>
	<path d="M147.998,0C66.392,0,0,66.392,0,147.998s66.392,147.998,147.998,147.998s147.998-66.392,147.998-147.998
		S229.604,0,147.998,0z M25.219,99.527c8.561-17.034,25.515-29.112,45.441-30.81c1.595-0.136,3.205-0.221,4.836-0.221
		c31.066,0,56.25,25.184,56.25,56.25s-25.184,56.25-56.25,56.25c-20.649,0-38.689-11.134-48.472-27.718
		c-4.935-8.366-7.778-18.115-7.778-28.532c0-2.956,0.23-5.856,0.67-8.689C21.328,110.396,23.101,104.875,25.219,99.527z
		 M276.065,115.998c0.445,2.851,0.681,5.772,0.681,8.748c0,11.511-3.464,22.21-9.397,31.124
		c-10.079,15.143-27.297,25.126-46.853,25.126c-31.066,0-56.25-25.184-56.25-56.25s25.184-56.25,56.25-56.25
		c19.879,0,37.335,10.32,47.34,25.886c1.073,1.67,2.061,3.398,2.957,5.184C272.897,104.883,274.659,110.371,276.065,115.998z"/>
	<circle cx="82.497" cy="123.998" r="16"/>
	<circle cx="214.497" cy="123.998" r="16"/>
</g>
<g>
</g>
<g>
</g>
<g>
</g>
<g>
</g>
<g>
</g>
<g>
</g>
<g>
</g>
<g>
</g>
<g>
</g>
<g>
</g>
<g>
</g>
<g>
</g>
<g>
</g>
<g>
</g>
<g>
</g>
</svg>
